<?xml version="1.0" encoding="UTF-8"?>
<svg width="37px" height="37px" viewBox="0 0 37 37" version="1.1" xmlns="http://www.w3.org/2000/svg" xmlns:xlink="http://www.w3.org/1999/xlink">
    <!-- Generator: Sketch 54.1 (76490) - https://sketchapp.com -->
    <title>service centers icon</title>
    <desc>Created with Sketch.</desc>
    <defs>
        <linearGradient x1="9.32348066%" y1="3.87634656%" x2="74.1585981%" y2="92.9908027%" id="linearGradient-1">
            <stop stop-color="#0B80F4" offset="0%"></stop>
            <stop stop-color="#004080" offset="100%"></stop>
        </linearGradient>
    </defs>
    <g id="Final" stroke="none" stroke-width="1" fill="none" fill-rule="evenodd">
        <g id="service-centers-icon" fill="url(#linearGradient-1)" fill-rule="nonzero">
            <path d="M36.521216,6.51245483 C36.3864437,6.10190139 36.0629316,5.78154086 35.6514483,5.65196176 C35.2386486,5.52106491 34.790602,5.59837311 34.4461026,5.85789736 L30.7340504,8.64523896 L28.3901968,6.29890555 L31.1128462,2.53357117 C31.3632316,2.18780728 31.4337257,1.74372433 31.3029753,1.33712415 C31.1726637,0.931036432 30.8566837,0.611115152 30.451928,0.476191829 C27.0889091,-0.645655699 23.2921032,0.25239335 20.7747201,2.77259703 C17.0698344,6.53390493 17.0760501,12.5750729 20.7876635,16.2394527 C22.6521723,18.0796956 25.0905786,19 27.5235735,19 C29.9597129,19 32.3900753,18.0774261 34.2327192,16.2322783 C34.2354249,16.2291303 34.238935,16.2260556 34.2420794,16.2229076 C36.7661901,13.6450888 37.639541,9.92441163 36.521216,6.51245483 Z M32.3347916,14.3424733 C29.6884133,16.9859601 25.3529568,16.9819336 22.6677483,14.3308331 C20.0071103,11.7043306 20.013326,7.363504 22.6744759,4.66145034 C23.9601877,3.3747372 25.7152991,2.67823123 27.491471,2.67823123 C27.5610875,2.67823123 27.6311428,2.67910973 27.7003205,2.6822577 L25.5520074,5.65371876 C25.1664109,6.18718933 25.2249122,6.92205656 25.6899242,7.38758961 L29.661722,11.3638378 C30.1325111,11.834715 30.8791336,11.8883769 31.4114952,11.4880726 L34.3189355,9.30514066 C34.3710747,11.1502885 33.6762258,12.9695205 32.3347916,14.3424733 Z" id="Shape"></path>
            <path d="M25.1375663,16.4662902 L8.23400428,33.401802 C6.9554742,34.6818837 4.87612713,34.6818837 3.59846038,33.401802 C2.97678583,32.7789524 2.63432884,31.9541326 2.63432884,31.0796492 C2.63432884,30.2055983 2.97678583,29.3808506 3.59846038,28.7574964 L20.4577045,11.8659539 L18.5952708,10 L1.73602673,26.8915425 C0.616422587,28.0128304 0,29.5005046 0,31.0796492 C0,32.6592984 0.616422587,34.1469726 1.73602673,35.2677559 C2.88850962,36.4224171 4.40193931,37 5.91623233,37 C7.42966202,37 8.94438671,36.4228496 10.0964379,35.2677559 L27,18.3323162 L25.1375663,16.4662902 Z" id="Path"></path>
            <path d="M7.41212138,29.5811819 C6.62820767,28.8062727 5.38323936,28.8062727 4.5994012,29.5811819 C4.18443695,29.9914192 4,30.4472964 4,30.9943043 C4,31.5413122 4.2305273,32.0427548 4.5994012,32.4074268 C5.01436545,32.817664 5.52158596,33 6.02880647,33 C6.53602697,33 7.04324748,32.817664 7.41212138,32.3617868 C8.19595954,31.5869523 8.19595954,30.3561658 7.41212138,29.5811819 Z" id="Path"></path>
        </g>
    </g>
</svg>